<svg width="56" height="15" viewBox="0 0 56 15" fill="none" xmlns="http://www.w3.org/2000/svg">
<path fill-rule="evenodd" clip-rule="evenodd" d="M5.34975 9.1499C5.47554 9.27567 5.60246 9.39776 5.73017 9.51594C5.96658 9.73481 5.98087 10.1039 5.762 10.3403C5.54315 10.5767 5.17408 10.591 4.93765 10.3722C4.79891 10.2437 4.66118 10.1112 4.52479 9.97485C4.06765 9.51769 3.65283 9.04379 3.28611 8.56528C3.12189 8.87171 2.98566 9.16985 2.8788 9.45481C2.44604 10.6088 2.56619 11.3165 2.87449 11.6247C3.18279 11.933 3.89043 12.0532 5.04445 11.6204C6.14432 11.208 7.4413 10.3578 8.64921 9.1499C9.18996 8.60909 9.65902 8.05049 10.0492 7.49971C9.65913 6.9491 9.19019 6.39067 8.64956 5.85006C7.44165 4.64215 6.14473 3.79195 5.04484 3.3795C3.89083 2.94674 3.18318 3.06689 2.87487 3.37519C2.56657 3.68349 2.44643 4.39114 2.87919 5.54516C2.98597 5.82991 3.1221 6.12788 3.28618 6.43407C3.65278 5.95579 4.06745 5.48205 4.5244 5.02509C4.67156 4.87793 4.82029 4.73533 4.97016 4.59746C5.20725 4.37933 5.57627 4.39471 5.79439 4.6318C6.01254 4.8689 5.99714 5.23792 5.76005 5.45605C5.62212 5.58294 5.48509 5.71432 5.34936 5.85005C4.80876 6.39067 4.33982 6.9491 3.9497 7.49971C4.33989 8.05049 4.80897 8.60909 5.34975 9.1499ZM1.78681 5.9548C1.97382 6.4535 2.23174 6.97389 2.55289 7.49965C2.23156 8.02564 1.97351 8.54627 1.78642 9.04513C1.32345 10.2798 1.2188 11.619 2.04953 12.4497C2.88026 13.2804 4.21951 13.1758 5.4541 12.7128C6.74288 12.2295 8.17618 11.2728 9.47416 9.97485C9.93132 9.51769 10.3461 9.04373 10.7128 8.56528C10.8771 8.87171 11.0133 9.16985 11.1202 9.45481C11.5529 10.6088 11.4328 11.3165 11.1245 11.6247C10.8368 11.9124 10.2016 12.0406 9.15467 11.6914C8.84906 11.5895 8.51866 11.7546 8.41675 12.0602C8.31484 12.3659 8.47993 12.6962 8.78553 12.7981C9.93704 13.1822 11.1688 13.2303 11.9494 12.4497C12.7801 11.619 12.6755 10.2798 12.2125 9.04513C12.0254 8.54627 11.7674 8.02564 11.4461 7.49965C11.7672 6.97389 12.0251 6.4535 12.2122 5.95479C12.6751 4.7202 12.7797 3.38095 11.949 2.55022C11.1741 1.77528 9.95424 1.81741 8.81202 2.1929C8.506 2.29351 8.33946 2.62318 8.44003 2.92923C8.54065 3.23528 8.87035 3.40183 9.17637 3.30121C10.2114 2.96097 10.8386 3.08976 11.1241 3.37518C11.4324 3.68348 11.5525 4.39112 11.1197 5.54514C11.013 5.8299 10.8768 6.12788 10.7128 6.43407C10.3461 5.95579 9.93149 5.48206 9.47451 5.0251C8.17659 3.72715 6.74323 2.7704 5.45449 2.28712C4.2199 1.82415 2.88064 1.7195 2.04992 2.55023C1.21919 3.38096 1.32383 4.72021 1.78681 5.9548ZM6.99995 8.375C7.48318 8.375 7.87495 7.98323 7.87495 7.5C7.87495 7.01677 7.48318 6.625 6.99995 6.625C6.51666 6.625 6.12495 7.01677 6.12495 7.5C6.12495 7.98323 6.51666 8.375 6.99995 8.375Z" fill="#00C2ED"/>
<path d="M16.8252 12V2.84668H19.853C20.839 2.84668 21.6833 3.03711 22.3857 3.41797C23.0882 3.7946 23.6193 4.3278 23.979 5.01758C24.3429 5.70312 24.5249 6.50928 24.5249 7.43604C24.5249 8.35433 24.3429 9.15837 23.979 9.84814C23.6193 10.5337 23.0882 11.0648 22.3857 11.4414C21.6833 11.8138 20.839 12 19.853 12H16.8252ZM19.8403 10.6226C20.4666 10.6226 21.0041 10.4956 21.4526 10.2417C21.9012 9.98356 22.244 9.6154 22.481 9.13721C22.7222 8.65479 22.8428 8.08773 22.8428 7.43604C22.8428 6.77588 22.7222 6.20671 22.481 5.72852C22.244 5.24609 21.8991 4.87581 21.4463 4.61768C20.9977 4.35531 20.4603 4.22412 19.834 4.22412H18.4692V10.6226H19.8403ZM28.5145 12.146C27.8713 12.146 27.2915 12.0021 26.7753 11.7144C26.2632 11.4266 25.8612 11.0161 25.5692 10.4829C25.2815 9.94971 25.1376 9.3361 25.1376 8.64209C25.1376 7.94808 25.2793 7.33447 25.5629 6.80127C25.8464 6.26807 26.2463 5.85547 26.7626 5.56348C27.2789 5.26725 27.865 5.11914 28.5209 5.11914C29.181 5.11914 29.765 5.26514 30.2728 5.55713C30.7849 5.84912 31.1827 6.26172 31.4662 6.79492C31.7497 7.32389 31.8915 7.93962 31.8915 8.64209C31.8915 9.34033 31.7476 9.95605 31.4598 10.4893C31.1721 11.0182 30.7701 11.4266 30.2538 11.7144C29.7417 12.0021 29.162 12.146 28.5145 12.146ZM28.5145 10.8257C28.8573 10.8257 29.162 10.741 29.4286 10.5718C29.6952 10.3983 29.9047 10.1486 30.057 9.82275C30.2094 9.49268 30.2855 9.09912 30.2855 8.64209C30.2855 8.18506 30.2094 7.7915 30.057 7.46143C29.9089 7.13135 29.7015 6.87956 29.4349 6.70605C29.1683 6.53255 28.8615 6.4458 28.5145 6.4458C28.1675 6.4458 27.8607 6.53255 27.5941 6.70605C27.3275 6.87956 27.118 7.13135 26.9657 7.46143C26.8176 7.7915 26.7435 8.18506 26.7435 8.64209C26.7435 9.09912 26.8197 9.49056 26.9721 9.81641C27.1244 10.1423 27.3339 10.3919 27.6005 10.5654C27.8671 10.7389 28.1718 10.8257 28.5145 10.8257ZM35.8303 12.1523C35.1998 12.1523 34.6285 12.019 34.1165 11.7524C33.6087 11.4858 33.2066 11.0923 32.9104 10.5718C32.6142 10.047 32.4661 9.41016 32.4661 8.66113C32.4661 7.9248 32.61 7.29004 32.8977 6.75684C33.1855 6.22363 33.5811 5.81738 34.0847 5.53809C34.5925 5.25879 35.1702 5.11914 35.8176 5.11914C36.4143 5.11914 36.9348 5.23763 37.3792 5.47461C37.8277 5.71159 38.179 6.03532 38.4329 6.4458C38.691 6.85628 38.8518 7.31543 38.9153 7.82324H37.3792C37.3326 7.55664 37.2459 7.31966 37.1189 7.1123C36.9962 6.90072 36.8269 6.73145 36.6111 6.60449C36.3953 6.47754 36.135 6.41406 35.8303 6.41406C35.4622 6.41406 35.1448 6.50505 34.8782 6.68701C34.6158 6.86898 34.4127 7.12712 34.2688 7.46143C34.1292 7.79574 34.0593 8.18717 34.0593 8.63574C34.0593 9.09277 34.1292 9.48844 34.2688 9.82275C34.4127 10.1528 34.6179 10.4067 34.8845 10.5845C35.1511 10.758 35.4664 10.8447 35.8303 10.8447C36.1266 10.8447 36.3826 10.7855 36.5984 10.667C36.8142 10.5485 36.9856 10.3898 37.1126 10.1909C37.2395 9.98779 37.3284 9.75928 37.3792 9.50537H38.9216C38.8539 10.0132 38.691 10.466 38.4329 10.8638C38.179 11.2616 37.8298 11.5768 37.3855 11.8096C36.9412 12.0381 36.4228 12.1523 35.8303 12.1523ZM42.4542 12.1016C41.9337 12.1016 41.519 12.0148 41.2101 11.8413C40.9012 11.6678 40.6832 11.4329 40.5563 11.1367C40.4293 10.8405 40.3659 10.4914 40.3659 10.0894V6.56641H39.236V5.27148H40.3659V3.51318H41.9591V5.27148H43.4508V6.56641H41.9591V10.0068C41.9591 10.2438 42.0311 10.4279 42.1749 10.5591C42.3188 10.6903 42.5516 10.7559 42.8732 10.7559C43.0467 10.7559 43.235 10.7389 43.4381 10.7051V11.9492C43.1165 12.0508 42.7885 12.1016 42.4542 12.1016ZM47.2818 12.146C46.6385 12.146 46.0588 12.0021 45.5425 11.7144C45.0305 11.4266 44.6284 11.0161 44.3364 10.4829C44.0487 9.94971 43.9048 9.3361 43.9048 8.64209C43.9048 7.94808 44.0466 7.33447 44.3301 6.80127C44.6136 6.26807 45.0135 5.85547 45.5298 5.56348C46.0461 5.26725 46.6322 5.11914 47.2881 5.11914C47.9483 5.11914 48.5322 5.26514 49.0401 5.55713C49.5521 5.84912 49.9499 6.26172 50.2334 6.79492C50.5169 7.32389 50.6587 7.93962 50.6587 8.64209C50.6587 9.34033 50.5148 9.95605 50.2271 10.4893C49.9393 11.0182 49.5373 11.4266 49.021 11.7144C48.509 12.0021 47.9292 12.146 47.2818 12.146ZM47.2818 10.8257C47.6245 10.8257 47.9292 10.741 48.1958 10.5718C48.4624 10.3983 48.6719 10.1486 48.8242 9.82275C48.9766 9.49268 49.0528 9.09912 49.0528 8.64209C49.0528 8.18506 48.9766 7.7915 48.8242 7.46143C48.6761 7.13135 48.4688 6.87956 48.2022 6.70605C47.9356 6.53255 47.6288 6.4458 47.2818 6.4458C46.9348 6.4458 46.6279 6.53255 46.3613 6.70605C46.0947 6.87956 45.8853 7.13135 45.7329 7.46143C45.5848 7.7915 45.5108 8.18506 45.5108 8.64209C45.5108 9.09912 45.5869 9.49056 45.7393 9.81641C45.8916 10.1423 46.1011 10.3919 46.3677 10.5654C46.6343 10.7389 46.939 10.8257 47.2818 10.8257ZM51.5189 12V5.26514H53.1122V6.54102H53.1439C53.3217 6.10938 53.5735 5.78353 53.8993 5.56348C54.2252 5.33919 54.6166 5.22705 55.0736 5.22705C55.2556 5.22705 55.3847 5.23551 55.4608 5.25244V6.74414C55.4101 6.73145 55.3487 6.72298 55.2768 6.71875C55.209 6.71029 55.1413 6.70605 55.0736 6.70605C54.6843 6.70605 54.3415 6.78646 54.0453 6.94727C53.7533 7.10807 53.5248 7.33659 53.3598 7.63281C53.1947 7.9248 53.1122 8.26546 53.1122 8.65479V12H51.5189Z" fill="#E7E7E7"/>
</svg>
